#N canvas 901 39 897 865 10;
#X obj 328 165 +~;
#X obj 314 29 phasor~;
#X obj 314 55 -~ 0.5;
#X obj 416 38 / 10;
#X obj 414 62 pack 0 50;
#X obj 413 85 line~;
#X obj 413 108 +~ 1;
#X obj 313 85 *~;
#X obj 308 109 clip~ -0.5 0.5;
#X obj 253 132 +~ 1;
#X obj 251 154 *~ 0.5;
#X obj 312 1 r freq;
#X obj 414 6 r idx;
#X obj 250 107 cos~;
#X obj 406 777 dac~ 1;
#X obj 381 313 +~;
#X obj 438 689 *~ 0.5;
#X obj 394 263 + 1;
#X obj 359 286 *~ 1;
#X obj 438 289 *~ 1;
#X obj 451 266 * -1;
#X obj 557 260 *~ 1;
#X obj 575 302 +~;
#X obj 512 271 + 1;
#X obj 509 301 *~ 1;
#X obj 435 241 r k12;
#X obj 378 610 +~;
#X obj 391 560 + 1;
#X obj 356 583 *~ 1;
#X obj 435 586 *~ 1;
#X obj 448 563 * -1;
#X obj 554 557 *~ 1;
#X obj 572 599 +~;
#X obj 509 568 + 1;
#X obj 506 598 *~ 1;
#X obj 432 538 r k34;
#X obj 377 451 +~;
#X obj 390 401 + 1;
#X obj 355 424 *~ 1;
#X obj 434 427 *~ 1;
#X obj 447 404 * -1;
#X obj 549 384 *~ 1;
#X obj 571 440 +~;
#X obj 508 409 + 1;
#X obj 505 439 *~ 1;
#X obj 431 379 r k23;
#X obj 223 215 s~ S1+;
#X obj 224 235 r~ S1+;
#X obj 227 348 s~ S2+;
#X obj 226 368 r~ S2+;
#X obj 230 510 s~ S3+;
#X obj 229 530 r~ S3+;
#X obj 234 643 s~ S4+;
#X obj 233 664 r~ S4+;
#X obj 652 246 s~ S1-;
#X obj 652 225 r~ S1-;
#X obj 655 335 r~ S2-;
#X obj 654 357 s~ S2-;
#X obj 656 475 r~ S3-;
#X obj 656 496 s~ S3-;
#X obj 655 637 r~ S4-;
#X obj 655 659 s~ S4-;
#X connect 0 0 46 0;
#X connect 1 0 2 0;
#X connect 2 0 7 0;
#X connect 3 0 4 0;
#X connect 4 0 5 0;
#X connect 5 0 6 0;
#X connect 6 0 7 1;
#X connect 7 0 8 0;
#X connect 8 0 13 0;
#X connect 9 0 10 0;
#X connect 10 0 0 0;
#X connect 11 0 1 0;
#X connect 12 0 3 0;
#X connect 13 0 9 0;
#X connect 15 0 48 0;
#X connect 16 0 14 0;
#X connect 16 0 61 0;
#X connect 17 0 18 1;
#X connect 18 0 15 0;
#X connect 19 0 15 1;
#X connect 20 0 19 1;
#X connect 20 0 23 0;
#X connect 21 0 22 0;
#X connect 22 0 54 0;
#X connect 23 0 24 1;
#X connect 24 0 22 1;
#X connect 25 0 17 0;
#X connect 25 0 20 0;
#X connect 25 0 21 1;
#X connect 26 0 52 0;
#X connect 27 0 28 1;
#X connect 28 0 26 0;
#X connect 29 0 26 1;
#X connect 30 0 29 1;
#X connect 30 0 33 0;
#X connect 31 0 32 0;
#X connect 32 0 59 0;
#X connect 33 0 34 1;
#X connect 34 0 32 1;
#X connect 35 0 27 0;
#X connect 35 0 30 0;
#X connect 35 0 31 1;
#X connect 36 0 50 0;
#X connect 37 0 38 1;
#X connect 38 0 36 0;
#X connect 39 0 36 1;
#X connect 40 0 39 1;
#X connect 40 0 43 0;
#X connect 41 0 42 0;
#X connect 42 0 57 0;
#X connect 43 0 44 1;
#X connect 44 0 42 1;
#X connect 45 0 37 0;
#X connect 45 0 40 0;
#X connect 45 0 41 1;
#X connect 47 0 18 0;
#X connect 47 0 21 0;
#X connect 49 0 38 0;
#X connect 49 0 41 0;
#X connect 51 0 28 0;
#X connect 51 0 31 0;
#X connect 53 0 16 0;
#X connect 55 0 0 1;
#X connect 56 0 24 0;
#X connect 56 0 19 0;
#X connect 58 0 44 0;
#X connect 58 0 39 0;
#X connect 60 0 34 0;
#X connect 60 0 29 0;
