#N canvas 640 23 1022 1075 10;
#X obj 373 4 +~;
#X obj 69 269 phasor~;
#X obj 69 295 -~ 0.5;
#X obj 171 278 / 10;
#X obj 169 302 pack 0 50;
#X obj 168 325 line~;
#X obj 168 348 +~ 1;
#X obj 68 325 *~;
#X obj 63 349 clip~ -0.5 0.5;
#X obj 8 372 +~ 1;
#X obj 6 394 *~ 0.5;
#X obj 67 241 r freq;
#X obj 169 246 r idx;
#X obj 5 347 cos~;
#X obj 390 1044 dac~ 1;
#X obj 372 145 +~;
#X obj 434 1018 *~ 0.5;
#X obj 385 95 + 1;
#X obj 350 118 *~ 1;
#X obj 429 121 *~ 1;
#X obj 442 98 * -1;
#X obj 548 92 *~ 1;
#X obj 566 134 +~;
#X obj 503 103 + 1;
#X obj 500 133 *~ 1;
#X obj 426 73 r k12;
#X obj 368 380 +~;
#X obj 381 330 + 1;
#X obj 346 353 *~ 1;
#X obj 425 356 *~ 1;
#X obj 438 333 * -1;
#X obj 544 327 *~ 1;
#X obj 562 369 +~;
#X obj 499 338 + 1;
#X obj 496 368 *~ 1;
#X obj 422 308 r k34;
#X obj 371 252 +~;
#X obj 384 202 + 1;
#X obj 349 225 *~ 1;
#X obj 428 228 *~ 1;
#X obj 441 205 * -1;
#X obj 543 185 *~ 1;
#X obj 565 241 +~;
#X obj 502 210 + 1;
#X obj 499 240 *~ 1;
#X obj 425 180 r k23;
#X obj 274 47 s~ S1+;
#X obj 275 67 r~ S1+;
#X obj 273 170 s~ S2+;
#X obj 272 190 r~ S2+;
#X obj 271 277 s~ S3+;
#X obj 270 297 r~ S3+;
#X obj 267 407 s~ S4+;
#X obj 266 428 r~ S4+;
#X obj 613 64 s~ S1-;
#X obj 613 43 r~ S1-;
#X obj 613 161 r~ S2-;
#X obj 612 183 s~ S2-;
#X obj 611 274 r~ S3-;
#X obj 611 295 s~ S3-;
#X obj 609 388 r~ S4-;
#X obj 609 415 s~ S4-;
#X obj 367 492 +~;
#X obj 380 442 + 1;
#X obj 345 465 *~ 1;
#X obj 424 468 *~ 1;
#X obj 437 445 * -1;
#X obj 543 439 *~ 1;
#X obj 561 481 +~;
#X obj 498 450 + 1;
#X obj 495 480 *~ 1;
#X obj 363 727 +~;
#X obj 376 677 + 1;
#X obj 341 700 *~ 1;
#X obj 420 703 *~ 1;
#X obj 433 680 * -1;
#X obj 539 674 *~ 1;
#X obj 557 716 +~;
#X obj 494 685 + 1;
#X obj 491 715 *~ 1;
#X obj 366 599 +~;
#X obj 379 549 + 1;
#X obj 344 572 *~ 1;
#X obj 423 575 *~ 1;
#X obj 436 552 * -1;
#X obj 538 532 *~ 1;
#X obj 560 588 +~;
#X obj 497 557 + 1;
#X obj 494 587 *~ 1;
#X obj 357 976 +~;
#X obj 370 926 + 1;
#X obj 335 949 *~ 1;
#X obj 414 952 *~ 1;
#X obj 427 929 * -1;
#X obj 533 923 *~ 1;
#X obj 551 965 +~;
#X obj 488 934 + 1;
#X obj 485 964 *~ 1;
#X obj 360 848 +~;
#X obj 373 798 + 1;
#X obj 338 821 *~ 1;
#X obj 417 824 *~ 1;
#X obj 430 801 * -1;
#X obj 532 781 *~ 1;
#X obj 554 837 +~;
#X obj 491 806 + 1;
#X obj 488 836 *~ 1;
#X obj 421 420 r k45;
#X obj 420 527 r k56;
#X obj 417 655 r k67;
#X obj 414 776 r k78;
#X obj 411 904 r k89;
#X obj 268 517 s~ S5+;
#X obj 267 537 r~ S5+;
#X obj 608 508 r~ S5-;
#X obj 607 530 s~ S5-;
#X obj 266 624 s~ S6+;
#X obj 265 644 r~ S6+;
#X obj 606 621 r~ S6-;
#X obj 606 642 s~ S6-;
#X obj 262 754 s~ S7+;
#X obj 261 775 r~ S7+;
#X obj 604 735 r~ S7-;
#X obj 604 757 s~ S7-;
#X obj 260 873 s~ S8+;
#X obj 600 870 r~ S8-;
#X obj 600 891 s~ S8-;
#X obj 259 893 r~ S8+;
#X obj 256 987 s~ S9+;
#X obj 255 1008 r~ S9+;
#X obj 598 984 r~ S9-;
#X obj 598 1006 s~ S9-;
#X connect 0 0 46 0;
#X connect 1 0 2 0;
#X connect 2 0 7 0;
#X connect 3 0 4 0;
#X connect 4 0 5 0;
#X connect 5 0 6 0;
#X connect 6 0 7 1;
#X connect 7 0 8 0;
#X connect 8 0 13 0;
#X connect 9 0 10 0;
#X connect 10 0 0 0;
#X connect 11 0 1 0;
#X connect 12 0 3 0;
#X connect 13 0 9 0;
#X connect 15 0 48 0;
#X connect 16 0 14 0;
#X connect 16 0 115 0;
#X connect 17 0 18 1;
#X connect 18 0 15 0;
#X connect 19 0 15 1;
#X connect 20 0 19 1;
#X connect 20 0 23 0;
#X connect 21 0 22 0;
#X connect 22 0 54 0;
#X connect 23 0 24 1;
#X connect 24 0 22 1;
#X connect 25 0 17 0;
#X connect 25 0 20 0;
#X connect 25 0 21 1;
#X connect 26 0 52 0;
#X connect 27 0 28 1;
#X connect 28 0 26 0;
#X connect 29 0 26 1;
#X connect 30 0 29 1;
#X connect 30 0 33 0;
#X connect 31 0 32 0;
#X connect 32 0 59 0;
#X connect 33 0 34 1;
#X connect 34 0 32 1;
#X connect 35 0 27 0;
#X connect 35 0 30 0;
#X connect 35 0 31 1;
#X connect 36 0 50 0;
#X connect 37 0 38 1;
#X connect 38 0 36 0;
#X connect 39 0 36 1;
#X connect 40 0 39 1;
#X connect 40 0 43 0;
#X connect 41 0 42 0;
#X connect 42 0 57 0;
#X connect 43 0 44 1;
#X connect 44 0 42 1;
#X connect 45 0 37 0;
#X connect 45 0 40 0;
#X connect 45 0 41 1;
#X connect 47 0 18 0;
#X connect 47 0 21 0;
#X connect 49 0 38 0;
#X connect 49 0 41 0;
#X connect 51 0 28 0;
#X connect 51 0 31 0;
#X connect 53 0 64 0;
#X connect 53 0 67 0;
#X connect 55 0 0 1;
#X connect 56 0 24 0;
#X connect 56 0 19 0;
#X connect 58 0 44 0;
#X connect 58 0 39 0;
#X connect 60 0 34 0;
#X connect 60 0 29 0;
#X connect 62 0 112 0;
#X connect 63 0 64 1;
#X connect 64 0 62 0;
#X connect 65 0 62 1;
#X connect 66 0 65 1;
#X connect 66 0 69 0;
#X connect 67 0 68 0;
#X connect 68 0 61 0;
#X connect 69 0 70 1;
#X connect 70 0 68 1;
#X connect 71 0 120 0;
#X connect 72 0 73 1;
#X connect 73 0 71 0;
#X connect 74 0 71 1;
#X connect 75 0 74 1;
#X connect 75 0 78 0;
#X connect 76 0 77 0;
#X connect 78 0 79 1;
#X connect 79 0 77 1;
#X connect 80 0 116 0;
#X connect 81 0 82 1;
#X connect 82 0 80 0;
#X connect 83 0 80 1;
#X connect 84 0 83 1;
#X connect 84 0 87 0;
#X connect 85 0 86 0;
#X connect 87 0 88 1;
#X connect 88 0 86 1;
#X connect 89 0 128 0;
#X connect 90 0 91 1;
#X connect 91 0 89 0;
#X connect 92 0 89 1;
#X connect 93 0 92 1;
#X connect 93 0 96 0;
#X connect 94 0 95 0;
#X connect 95 0 126 0;
#X connect 96 0 97 1;
#X connect 97 0 95 1;
#X connect 98 0 124 0;
#X connect 99 0 100 1;
#X connect 100 0 98 0;
#X connect 101 0 98 1;
#X connect 102 0 101 1;
#X connect 102 0 105 0;
#X connect 103 0 104 0;
#X connect 104 0 123 0;
#X connect 105 0 106 1;
#X connect 106 0 104 1;
#X connect 107 0 63 0;
#X connect 107 0 66 0;
#X connect 107 0 67 1;
#X connect 108 0 81 0;
#X connect 108 0 84 0;
#X connect 108 0 85 1;
#X connect 109 0 72 0;
#X connect 109 0 75 0;
#X connect 109 0 76 1;
#X connect 110 0 99 0;
#X connect 110 0 102 0;
#X connect 110 0 103 1;
#X connect 111 0 90 0;
#X connect 111 0 93 0;
#X connect 111 0 94 1;
#X connect 113 0 16 0;
#X connect 114 0 70 0;
#X connect 114 0 65 0;
#X connect 118 0 88 0;
#X connect 118 0 83 0;
#X connect 121 0 100 0;
#X connect 121 0 103 0;
#X connect 122 0 79 0;
#X connect 122 0 74 0;
#X connect 125 0 106 0;
#X connect 125 0 101 0;
#X connect 127 0 91 0;
#X connect 127 0 94 0;
#X connect 130 0 97 0;
#X connect 130 0 92 0;
