#N canvas 907 224 932 900 10;
#X obj 39 23 bng 15 250 50 0 empty empty empty 17 7 0 10 -262144 -1
-1;
#X msg 39 65 read -resize ./test.wav glottal-1;
#X obj 39 103 soundfiler;
#X obj 759 294 tabread~ glottal-1;
#X obj 758 251 line~;
#N canvas 0 22 450 278 (subpatch) 0;
#X array glottal-1 200 float 2;
#X coords 0 1 200 -1 200 140 1 0 0;
#X restore 27 676 graph;
#X obj 405 772 dac~ 1;
#X obj 330 165 +~;
#X obj 380 308 +~;
#X obj 437 684 *~ 0.5;
#X obj 393 258 + 1;
#X obj 358 281 *~ 1;
#X obj 437 284 *~ 1;
#X obj 450 261 * -1;
#X obj 556 255 *~ 1;
#X obj 574 297 +~;
#X obj 511 266 + 1;
#X obj 508 296 *~ 1;
#X obj 39 166 hsl 128 15 -1 1 0 0 empty empty empty -2 -8 0 10 -262144
-1 -1 6100 1;
#X floatatom 34 215 5 0 0 0 - - -;
#X obj 34 245 s k12;
#X obj 434 236 r k12;
#X obj 377 605 +~;
#X obj 390 555 + 1;
#X obj 355 578 *~ 1;
#X obj 434 581 *~ 1;
#X obj 447 558 * -1;
#X obj 553 552 *~ 1;
#X obj 571 594 +~;
#X obj 508 563 + 1;
#X obj 505 593 *~ 1;
#X obj 431 533 r k34;
#X obj 376 446 +~;
#X obj 389 396 + 1;
#X obj 354 419 *~ 1;
#X obj 433 422 *~ 1;
#X obj 446 399 * -1;
#X obj 548 379 *~ 1;
#X obj 570 435 +~;
#X obj 507 404 + 1;
#X obj 504 434 *~ 1;
#X obj 35 285 hsl 128 15 -1 1 0 0 empty empty empty -2 -8 0 10 -262144
-1 -1 10600 1;
#X floatatom 32 315 5 0 0 0 - - -;
#X obj 31 394 hsl 128 15 -1 1 0 0 empty empty empty -2 -8 0 10 -262144
-1 -1 6300 1;
#X floatatom 29 422 5 0 0 0 - - -;
#X obj 31 347 s k23;
#X obj 430 374 r k23;
#X obj 29 452 s k34;
#X msg 757 216 0 \, 66100 500;
#X floatatom 314 4 5 0 0 0 - - -;
#X obj 314 29 phasor~;
#X obj 314 55 -~ 0.5;
#X floatatom 418 15 5 0 0 0 - - -;
#X obj 416 38 / 10;
#X obj 414 62 pack 0 50;
#X obj 413 85 line~;
#X obj 413 108 +~ 1;
#X obj 313 85 *~;
#X obj 308 109 clip~ -0.5 0.5;
#X obj 253 132 +~ 1;
#X obj 251 154 *~ 0.5;
#X obj 398 143 tabwrite~ glottal-1;
#X msg 469 121 bang;
#X obj 701 95 block~;
#X obj 222 210 s~ S1+;
#X obj 223 230 r~ S1+;
#X obj 226 343 s~ S2+;
#X obj 225 363 r~ S2+;
#X obj 229 505 s~ S3+;
#X obj 228 525 r~ S3+;
#X obj 233 638 s~ S4+;
#X obj 232 659 r~ S4+;
#X obj 651 241 s~ S1-;
#X obj 651 220 r~ S1-;
#X obj 654 330 r~ S2-;
#X obj 653 352 s~ S2-;
#X obj 655 470 r~ S3-;
#X obj 655 491 s~ S3-;
#X obj 654 632 r~ S4-;
#X obj 654 654 s~ S4-;
#X obj 256 107 cos~;
#X msg 701 61 set 64;
#X connect 0 0 1 0;
#X connect 1 0 2 0;
#X connect 4 0 3 0;
#X connect 7 0 64 0;
#X connect 8 0 66 0;
#X connect 9 0 6 0;
#X connect 9 0 79 0;
#X connect 10 0 11 1;
#X connect 11 0 8 0;
#X connect 12 0 8 1;
#X connect 13 0 12 1;
#X connect 13 0 16 0;
#X connect 14 0 15 0;
#X connect 15 0 72 0;
#X connect 16 0 17 1;
#X connect 17 0 15 1;
#X connect 18 0 19 0;
#X connect 19 0 20 0;
#X connect 21 0 10 0;
#X connect 21 0 13 0;
#X connect 21 0 14 1;
#X connect 22 0 70 0;
#X connect 23 0 24 1;
#X connect 24 0 22 0;
#X connect 25 0 22 1;
#X connect 26 0 25 1;
#X connect 26 0 29 0;
#X connect 27 0 28 0;
#X connect 28 0 77 0;
#X connect 29 0 30 1;
#X connect 30 0 28 1;
#X connect 31 0 23 0;
#X connect 31 0 26 0;
#X connect 31 0 27 1;
#X connect 32 0 68 0;
#X connect 33 0 34 1;
#X connect 34 0 32 0;
#X connect 35 0 32 1;
#X connect 36 0 35 1;
#X connect 36 0 39 0;
#X connect 37 0 38 0;
#X connect 38 0 75 0;
#X connect 39 0 40 1;
#X connect 40 0 38 1;
#X connect 41 0 42 0;
#X connect 42 0 45 0;
#X connect 43 0 44 0;
#X connect 44 0 47 0;
#X connect 46 0 33 0;
#X connect 46 0 36 0;
#X connect 46 0 37 1;
#X connect 48 0 4 0;
#X connect 49 0 50 0;
#X connect 50 0 51 0;
#X connect 51 0 57 0;
#X connect 52 0 53 0;
#X connect 53 0 54 0;
#X connect 54 0 55 0;
#X connect 55 0 56 0;
#X connect 56 0 57 1;
#X connect 57 0 58 0;
#X connect 58 0 80 0;
#X connect 59 0 60 0;
#X connect 60 0 7 0;
#X connect 60 0 61 0;
#X connect 62 0 61 0;
#X connect 65 0 11 0;
#X connect 65 0 14 0;
#X connect 67 0 34 0;
#X connect 67 0 37 0;
#X connect 69 0 24 0;
#X connect 69 0 27 0;
#X connect 71 0 9 0;
#X connect 73 0 7 1;
#X connect 74 0 17 0;
#X connect 74 0 12 0;
#X connect 76 0 40 0;
#X connect 76 0 35 0;
#X connect 78 0 30 0;
#X connect 78 0 25 0;
#X connect 80 0 59 0;
#X connect 81 0 63 0;
